<svg width="753" height="616" viewBox="0 0 753 616" fill="none" xmlns="http://www.w3.org/2000/svg">
<rect width="753" height="616" fill="#F5F5F5"/>
<path d="M0 1.99998C0 0.895413 0.895431 0 2 0H751C752.105 0 753 0.895431 753 2V614C753 615.105 752.105 616 751 616H2C0.895431 616 0 615.105 0 614V1.99998Z" fill="white"/>
<path d="M2 1H751V-1H2V1ZM752 2V614H754V2H752ZM751 615H2V617H751V615ZM1 614V1.99998H-1V614H1ZM2 615C1.44772 615 1 614.552 1 614H-1C-1 615.657 0.343146 617 2 617V615ZM752 614C752 614.552 751.552 615 751 615V617C752.657 617 754 615.657 754 614H752ZM751 1C751.552 1 752 1.44772 752 2H754C754 0.343146 752.657 -1 751 -1V1ZM2 -1C0.343157 -1 -1 0.343117 -1 1.99998H1C1 1.44771 1.4477 1 2 1V-1Z" fill="black" fill-opacity="0.1"/>
<rect x="95" y="77" width="554" height="396" fill="url(#paint0_linear_0_1)"/>
<path d="M292.639 371.486C282.223 371.486 272.842 369.414 264.496 365.271C256.151 361.128 249.463 355.446 244.433 348.226C239.402 341.005 236.65 332.778 236.176 323.545H257.483C258.312 331.772 262.04 338.579 268.669 343.964C275.357 349.291 283.347 351.955 292.639 351.955C300.097 351.955 306.725 350.209 312.526 346.717C318.385 343.225 322.972 338.431 326.286 332.335C329.66 326.179 331.347 319.225 331.347 311.472C331.347 303.541 329.601 296.468 326.109 290.254C322.676 283.98 317.941 279.038 311.904 275.428C305.867 271.817 298.972 269.982 291.219 269.923C285.655 269.864 279.944 270.722 274.085 272.498C268.225 274.214 263.402 276.434 259.614 279.156L239.017 276.67L250.026 187.182H344.486V206.713H268.491L262.099 260.335H263.165C266.893 257.376 271.569 254.92 277.192 252.967C282.814 251.013 288.674 250.037 294.77 250.037C305.897 250.037 315.81 252.7 324.511 258.027C333.27 263.295 340.136 270.515 345.107 279.689C350.138 288.863 352.653 299.339 352.653 311.116C352.653 322.717 350.049 333.074 344.841 342.189C339.692 351.244 332.589 358.406 323.534 363.673C314.479 368.882 304.18 371.486 292.639 371.486ZM391.117 369V187.182H413.134V277.381H415.264L496.941 187.182H525.705L449.355 269.213L525.705 369H499.071L435.861 284.483L413.134 310.051V369H391.117Z" fill="url(#paint1_linear_0_1)"/>
<defs>
<linearGradient id="paint0_linear_0_1" x1="372" y1="77" x2="372" y2="473" gradientUnits="userSpaceOnUse">
<stop stop-color="#FF0000"/>
<stop offset="1" stop-color="#FF0000" stop-opacity="0"/>
</linearGradient>
<linearGradient id="paint1_linear_0_1" x1="151.333" y1="127" x2="569.958" y2="127" gradientUnits="userSpaceOnUse">
<stop stop-color="#0EEEEE"/>
<stop offset="0.9999" stop-color="#B5F728" stop-opacity="0.984327"/>
<stop offset="1" stop-color="#0EEEEE" stop-opacity="0"/>
</linearGradient>
</defs>
</svg>
